<svg xmlns="http://www.w3.org/2000/svg" viewBox="0 0 1600 700" role="img" aria-labelledby="title desc">
  <title id="title">Europe Map Background</title>
  <desc id="desc">Decorative stylized map of Europe for section background.</desc>
  <defs>
    <linearGradient id="sea" x1="0" y1="0" x2="1" y2="1">
      <stop offset="0%" stop-color="#f0f1f4" />
      <stop offset="100%" stop-color="#e4e7eb" />
    </linearGradient>
    <filter id="soft" x="-20%" y="-20%" width="140%" height="140%">
      <feDropShadow dx="0" dy="2" stdDeviation="3" flood-color="#b9c0ca" flood-opacity="0.3"/>
    </filter>
  </defs>

  <rect width="1600" height="700" fill="url(#sea)" />

  <g stroke="#c6ccd4" stroke-width="1.2" opacity="0.45">
    <path d="M0 90H1600"/><path d="M0 180H1600"/><path d="M0 270H1600"/>
    <path d="M0 360H1600"/><path d="M0 450H1600"/><path d="M0 540H1600"/>
    <path d="M180 0V700"/><path d="M360 0V700"/><path d="M540 0V700"/>
    <path d="M720 0V700"/><path d="M900 0V700"/><path d="M1080 0V700"/>
    <path d="M1260 0V700"/><path d="M1440 0V700"/>
  </g>

  <g fill="#d2d7de" stroke="#bcc4ce" stroke-width="2" filter="url(#soft)">
    <path d="M460 255l35-65 78-22 45 18 26-18 42 14 28 26 58-8 32 28 56 12 30 44-14 48-38 38-42 18-38-18-42 8-46-26-34 14-58-18-48 22-42-34-52-2-28-20 8-44z"/>
    <path d="M853 396l42-22 28 16 8 42-26 30-44 8-26-22z"/>
    <path d="M928 338l36-20 24 12 6 34-26 22-34-12z"/>
    <path d="M736 130l30-18 34 14 6 32-22 24-34-10z"/>
    <path d="M595 110l26-16 24 8 2 24-18 16-26-6z"/>
    <path d="M1028 470l60-26 44 14 6 48-34 36-58 8-28-30z"/>
    <path d="M1148 380l70-18 42 20 2 52-40 32-66-16z"/>
    <path d="M1180 300l46-22 36 12 6 34-28 28-46-10z"/>
    <path d="M466 170l24-10 18 8 2 16-14 14-24-4z"/>
  </g>

  <g fill="#ba932a" opacity="0.18">
    <circle cx="640" cy="286" r="92"/>
    <circle cx="980" cy="420" r="84"/>
  </g>
</svg>
